<svg version="1.1" xmlns="http://www.w3.org/2000/svg" xmlns:xlink="http://www.w3.org/1999/xlink" width="206.57637" height="183.00078" viewBox="0,0,206.57637,183.00078"><defs><radialGradient cx="326.57219" cy="180.04905" r="26" gradientUnits="userSpaceOnUse" id="color-1"><stop offset="0" stop-color="#727272"/><stop offset="1" stop-color="#ffffff"/></radialGradient></defs><g transform="translate(-148.49961,-88.49961)"><g data-paper-data="{&quot;isPaintingLayer&quot;:true}" fill-rule="nonzero" stroke-linecap="butt" stroke-linejoin="miter" stroke-miterlimit="10" stroke-dasharray="" stroke-dashoffset="0" style="mix-blend-mode: normal"><path d="M305.24662,119.47001c33.42979,36.03471 31.31808,92.3468 -4.71663,125.7766c-36.03471,33.42979 -92.3468,31.31808 -125.7766,-4.71662c-33.42979,-36.03471 -31.31808,-92.34681 4.71662,-125.7766c36.03471,-33.42979 92.34681,-31.31808 125.77661,4.71663z" fill="none" stroke="#e9e9e9" stroke-width="5"/><path d="M345.63667,162.26802c9.766,10.52699 9.1491,26.97772 -1.37789,36.74373c-10.52699,9.76601 -26.97772,9.1491 -36.74373,-1.37789c-9.76601,-10.52699 -9.1491,-26.97772 1.37789,-36.74372c10.52699,-9.76601 26.97772,-9.1491 36.74372,1.37789z" fill="#727272" stroke="#727272" stroke-width="5"/><path d="M305.24662,119.47001c33.42979,36.03471 31.31808,92.3468 -4.71663,125.7766c-36.03471,33.42979 -92.3468,31.31808 -125.7766,-4.71662c-33.42979,-36.03471 -31.31808,-92.34681 4.71662,-125.7766c36.03471,-33.42979 92.34681,-31.31808 125.77661,4.71663z" fill="none" stroke="#61b4e8" stroke-width="1.5"/><path d="M345.63299,162.36614c9.766,10.52699 9.1491,26.97772 -1.37789,36.74372c-10.52699,9.76601 -26.97772,9.1491 -36.74373,-1.37789c-9.76601,-10.52699 -9.1491,-26.97772 1.37789,-36.74372c10.52699,-9.76601 26.97772,-9.1491 36.74373,1.37789z" fill="url(#color-1)" stroke="#730000" stroke-width="1.5"/></g></g></svg>