<svg version="1.1" xmlns="http://www.w3.org/2000/svg" xmlns:xlink="http://www.w3.org/1999/xlink" width="204.24544" height="183.00077" viewBox="0,0,204.24544,183.00077"><g transform="translate(-148.49961,-88.49961)"><g data-paper-data="{&quot;isPaintingLayer&quot;:true}" fill-rule="nonzero" stroke-width="5" stroke-linecap="butt" stroke-linejoin="miter" stroke-miterlimit="10" stroke-dasharray="" stroke-dashoffset="0" style="mix-blend-mode: normal"><path d="M177.06752,117.06751c34.75666,-34.75666 91.10834,-34.75666 125.86501,0c34.75666,34.75666 34.75666,91.10835 0,125.86502c-34.75666,34.75666 -91.10834,34.75666 -125.86501,0c-34.75666,-34.75666 -34.75666,-91.10835 0,-125.86502z" fill="none" stroke="#e9e9e9"/><path d="M305.24662,119.47001c33.42979,36.03471 31.31808,92.3468 -4.71663,125.7766c-36.03471,33.42979 -92.3468,31.31808 -125.7766,-4.71662c-33.42979,-36.03471 -31.31808,-92.34681 4.71662,-125.7766c36.03471,-33.42979 92.34681,-31.31808 125.77661,4.71663z" fill="none" stroke="#e9e9e9"/><path d="M305.86028,166.50682c10.15363,-10.15363 26.61592,-10.15363 36.76955,0c10.15363,10.15363 10.15363,26.61592 0,36.76955c-10.15363,10.15363 -26.61592,10.15363 -36.76955,0c-10.15363,-10.15363 -10.15363,-26.61592 0,-36.76955z" fill="#727272" stroke="#727272"/><path d="M305.86028,166.50682c10.15363,-10.15363 26.61592,-10.15363 36.76955,0c10.15363,10.15363 10.15363,26.61592 0,36.76955c-10.15363,10.15363 -26.61592,10.15363 -36.76955,0c-10.15363,-10.15363 -10.15363,-26.61592 0,-36.76955z" fill="#d0d0d0" stroke="#989898"/></g></g></svg>