<svg version="1.1" xmlns="http://www.w3.org/2000/svg" xmlns:xlink="http://www.w3.org/1999/xlink" width="219.76132" height="85.98587" viewBox="0,0,219.76132,85.98587"><defs><radialGradient cx="239.02237" cy="185.8028" r="24.63728" gradientUnits="userSpaceOnUse" id="color-1"><stop offset="0" stop-color="#c9c9c9"/><stop offset="1" stop-color="#4c4c4c"/></radialGradient><radialGradient cx="238.85039" cy="173.05351" r="24.0587" gradientUnits="userSpaceOnUse" id="color-2"><stop offset="0" stop-color="#ffcf00"/><stop offset="1" stop-color="#ffcf00" stop-opacity="0"/></radialGradient><radialGradient cx="251.29122" cy="186.98251" r="26.04292" gradientUnits="userSpaceOnUse" id="color-3"><stop offset="0" stop-color="#ffdb00"/><stop offset="1" stop-color="#ffdb00" stop-opacity="0"/></radialGradient><radialGradient cx="238.43322" cy="198.43124" r="27.53109" gradientUnits="userSpaceOnUse" id="color-4"><stop offset="0" stop-color="#f1ff00"/><stop offset="1" stop-color="#f1ff00" stop-opacity="0"/></radialGradient><radialGradient cx="226.07128" cy="188.05352" r="29.01925" gradientUnits="userSpaceOnUse" id="color-5"><stop offset="0" stop-color="#fff400"/><stop offset="1" stop-color="#fff400" stop-opacity="0"/></radialGradient></defs><g transform="translate(-130.20988,-139.97646)"><g data-paper-data="{&quot;isPaintingLayer&quot;:true}" fill-rule="nonzero" stroke-linejoin="miter" stroke-miterlimit="10" stroke-dasharray="" stroke-dashoffset="0" style="mix-blend-mode: normal"><path d="M215.79409,194.05928l-64.00146,-8.44941l63.53987,-6.43307" fill="none" stroke="#7b0000" stroke-width="5" stroke-linecap="round"/><path d="M214.48549,183.59796c1.2177,-13.55134 13.19036,-23.54974 26.74171,-22.33204c13.55134,1.2177 23.54974,13.19037 22.33204,26.74171c-1.2177,13.55134 -13.19037,23.54974 -26.74171,22.33204c-13.55134,-1.2177 -23.54974,-13.19037 -22.33204,-26.74171z" fill="url(#color-1)" stroke="#7b0000" stroke-width="5" stroke-linecap="butt"/><path d="M264.38696,179.61033l64.00146,8.4494l-63.53988,6.43307" data-paper-data="{&quot;index&quot;:null}" fill="none" stroke="#7b0000" stroke-width="5" stroke-linecap="round"/><path d="M221.38965,186.35362c0.27675,-3.07985 2.99782,-5.35221 6.07767,-5.07546c3.07985,0.27675 5.35221,2.99781 5.07546,6.07766c-0.27675,3.07985 -2.99781,5.35221 -6.07766,5.07546c-3.07985,-0.27675 -5.35222,-2.99781 -5.07547,-6.07766z" fill="#ff0000" stroke="#830000" stroke-width="5" stroke-linecap="butt"/><path d="M245.74689,185.8056c0.27675,-3.07985 2.99781,-5.35222 6.07766,-5.07547c3.07985,0.27675 5.35221,2.99782 5.07546,6.07767c-0.27675,3.07985 -2.99781,5.35221 -6.07766,5.07546c-3.07985,-0.27675 -5.35221,-2.99781 -5.07546,-6.07766z" fill="#ff0000" stroke="#7b0000" stroke-width="5" stroke-linecap="butt"/><path d="M233.87734,198.34233c0.27675,-3.07985 2.99782,-5.35221 6.07767,-5.07546c3.07985,0.27675 5.35221,2.99781 5.07546,6.07766c-0.27675,3.07985 -2.99781,5.35221 -6.07766,5.07546c-3.07985,-0.27675 -5.35222,-2.99781 -5.07547,-6.07766z" fill="#ff0000" stroke="#7b0000" stroke-width="5" stroke-linecap="butt"/><path d="M233.95767,173.23798c0.27675,-3.07985 2.99782,-5.35221 6.07767,-5.07546c3.07985,0.27675 5.35221,2.99781 5.07546,6.07766c-0.27675,3.07985 -2.99781,5.35221 -6.07766,5.07546c-3.07985,-0.27675 -5.35222,-2.99781 -5.07547,-6.07766z" fill="#ff0000" stroke="#7b0000" stroke-width="5" stroke-linecap="butt"/><path d="M237.08154,161.30853l3.96194,-11.75203l0.33654,1.64464l2.01922,9.86788" fill="none" stroke="#7b0000" stroke-width="5" stroke-linecap="round"/><path d="M222.02267,204.58611l-21.25365,-3.70872l17.27346,-2.04566" fill="none" stroke="#7b0000" stroke-width="5" stroke-linecap="round"/><path d="M260.35413,200.53127l17.20676,2.54643l-21.35239,3.08995" data-paper-data="{&quot;index&quot;:null}" fill="none" stroke="#7b0000" stroke-width="5" stroke-linecap="round"/><path d="M170.76154,194.51001c-0.20295,2.25855 -2.1984,3.92496 -4.45696,3.72201c-2.25855,-0.20295 -3.92496,-2.1984 -3.72201,-4.45696c0.20295,-2.25855 2.19839,-3.92495 4.45695,-3.722c2.25855,0.20295 3.92496,2.1984 3.72201,4.45695z" fill="#a9a9a9" stroke="#7b0000" stroke-width="5" stroke-linecap="butt"/><path d="M185.1035,194.22471c-0.14391,1.60153 -1.15938,2.81905 -2.26813,2.71942c-1.10874,-0.09963 -1.89091,-1.47869 -1.747,-3.08021c0.14391,-1.60153 1.15939,-2.81905 2.26814,-2.71942c1.10874,0.09963 1.8909,1.47868 1.74699,3.08021z" fill="#a9a9a9" stroke="#7b0000" stroke-width="5" stroke-linecap="butt"/><path d="M319.45707,197.15119c-0.20295,2.25855 -2.1984,3.92496 -4.45695,3.72201c-2.25855,-0.20295 -3.92496,-2.1984 -3.72201,-4.45696c0.20295,-2.25855 2.1984,-3.92495 4.45695,-3.722c2.25855,0.20295 3.92495,2.19839 3.722,4.45694z" fill="#a9a9a9" stroke="#7b0000" stroke-width="5" stroke-linecap="butt"/><path d="M295.55769,197.02741c-0.14391,1.60153 -1.15938,2.81905 -2.26813,2.71942c-1.10875,-0.09963 -1.8909,-1.47868 -1.74699,-3.08021c0.14391,-1.60153 1.15939,-2.81905 2.26813,-2.71942c1.10875,0.09963 1.8909,1.47868 1.74699,3.08021z" fill="#a9a9a9" stroke="#7b0000" stroke-width="5" stroke-linecap="butt"/><path d="M214.79169,173.05351c0,-13.28725 10.77145,-24.0587 24.0587,-24.0587c13.28725,0 24.0587,10.77145 24.0587,24.0587c0,13.28725 -10.77145,24.0587 -24.0587,24.0587c-13.28725,0 -24.0587,-10.77145 -24.0587,-24.0587z" fill="url(#color-2)" stroke="none" stroke-width="0" stroke-linecap="butt"/><path d="M225.2483,186.98251c0,-14.38311 11.65981,-26.04292 26.04292,-26.04292c14.38311,0 26.04292,11.65981 26.04292,26.04292c0,14.38311 -11.65981,26.04292 -26.04292,26.04292c-14.38311,0 -26.04292,-11.65981 -26.04292,-26.04292z" fill="url(#color-3)" stroke="none" stroke-width="0" stroke-linecap="butt"/><path d="M210.90214,198.43124c0,-15.205 12.32608,-27.53109 27.53109,-27.53109c15.205,0 27.53109,12.32609 27.53109,27.53109c0,15.205 -12.32608,27.53109 -27.53109,27.53109c-15.205,0 -27.53109,-12.32608 -27.53109,-27.53109z" fill="url(#color-4)" stroke="none" stroke-width="0" stroke-linecap="butt"/><path d="M197.05202,188.05352c0,-16.02689 12.99236,-29.01926 29.01925,-29.01926c16.02689,0 29.01925,12.99237 29.01925,29.01926c0,16.02689 -12.99236,29.01925 -29.01925,29.01925c-16.02689,0 -29.01925,-12.99236 -29.01925,-29.01925z" fill="url(#color-5)" stroke="none" stroke-width="0" stroke-linecap="butt"/></g></g></svg>