<svg version="1.1" xmlns="http://www.w3.org/2000/svg" xmlns:xlink="http://www.w3.org/1999/xlink" width="229.001" height="91.93652" viewBox="0,0,229.001,91.93652"><defs><linearGradient x1="125.50176" y1="180.0003" x2="354.50025" y2="180.0003" gradientUnits="userSpaceOnUse" id="color-1"><stop offset="0.012" stop-color="#66b3e3"/><stop offset="1" stop-color="#1c75bc"/></linearGradient></defs><g transform="translate(-125.4995,-129.65008)"><g data-paper-data="{&quot;isPaintingLayer&quot;:true}" fill-rule="nonzero" stroke="none" stroke-width="1" stroke-linecap="butt" stroke-linejoin="miter" stroke-miterlimit="10" stroke-dasharray="" stroke-dashoffset="0" style="mix-blend-mode: normal"><path d="M354.5005,208.49571c0,7.22928 -9.69846,13.0909 -21.6542,13.0909h-185.69512c-11.95825,0 -21.65168,-5.86314 -21.65168,-13.0909v-56.99294c0,-7.22928 9.69343,-13.08938 21.65168,-13.08938h185.69261c11.96328,0 21.6542,5.8601 21.6542,13.08938v56.99294z" fill="url(#color-1)"/><path d="M345.90677,151.50277v56.99142c0,4.354 -5.85582,7.89561 -13.06298,7.89561h-185.69261c-7.19961,0 -13.06046,-3.54162 -13.06046,-7.89561v-56.99294c0,-4.354 5.86085,-7.89561 13.06046,-7.89561h185.69261c7.20716,0 13.06298,3.54314 13.06298,7.89713z" fill="#27aae1"/><text transform="translate(139.56948,202.29717) scale(1.43856,1.43856)" font-size="40" xml:space="preserve" fill="#420b0b" fill-rule="nonzero" stroke="none" stroke-width="1" stroke-linecap="butt" stroke-linejoin="miter" stroke-miterlimit="10" stroke-dasharray="" stroke-dashoffset="0" font-family="Pixel" font-weight="normal" text-anchor="start" style="mix-blend-mode: normal"><tspan x="0" dy="0">RETRY</tspan></text></g></g></svg>